<svg xmlns="http://www.w3.org/2000/svg" width="100%" viewBox="0 0 900 420">
  <defs>
    <linearGradient id="greenBg" x1="0" y1="0" x2="0" y2="1">
      <stop offset="0%" stop-color="#e6f4ea"/>
      <stop offset="100%" stop-color="#d4edda"/>
    </linearGradient>
    <linearGradient id="yellowBg" x1="0" y1="0" x2="0" y2="1">
      <stop offset="0%" stop-color="#fff8e1"/>
      <stop offset="100%" stop-color="#fff3cd"/>
    </linearGradient>
    <linearGradient id="redBg" x1="0" y1="0" x2="0" y2="1">
      <stop offset="0%" stop-color="#fde8ec"/>
      <stop offset="100%" stop-color="#f8d7da"/>
    </linearGradient>
  </defs>

  <!-- Title -->
  <text x="450" y="35" text-anchor="middle" font-family="'Inter', Arial, sans-serif" font-size="20" font-weight="700" fill="#24292f">Permission Modes</text>

  <!-- Legend -->
  <rect x="280" y="50" width="14" height="14" rx="3" fill="#1a7f37"/>
  <text x="300" y="62" font-family="'Inter', Arial, sans-serif" font-size="12" fill="#24292f">Auto</text>
  <rect x="360" y="50" width="14" height="14" rx="3" fill="#9a6700"/>
  <text x="380" y="62" font-family="'Inter', Arial, sans-serif" font-size="12" fill="#24292f">Ask</text>
  <rect x="430" y="50" width="14" height="14" rx="3" fill="#BE0027"/>
  <text x="450" y="62" font-family="'Inter', Arial, sans-serif" font-size="12" fill="#24292f">Deny</text>

  <!-- Column 1: Safe -->
  <rect x="30" y="85" width="195" height="320" rx="8" fill="#fde8ec" stroke="#BE0027" stroke-width="2"/>
  <rect x="30" y="85" width="195" height="45" rx="8" fill="#BE0027"/>
  <rect x="30" y="110" width="195" height="20" fill="#BE0027"/>
  <text x="127" y="113" text-anchor="middle" font-family="'Inter', Arial, sans-serif" font-size="16" font-weight="700" fill="white">Safe</text>

  <text x="127" y="160" text-anchor="middle" font-family="'Inter', Arial, sans-serif" font-size="13" font-weight="600" fill="#24292f">Read Files</text>
  <rect x="75" y="168" width="105" height="28" rx="14" fill="#1a7f37"/>
  <text x="127" y="187" text-anchor="middle" font-family="'Inter', Arial, sans-serif" font-size="12" font-weight="600" fill="white">Auto</text>

  <text x="127" y="225" text-anchor="middle" font-family="'Inter', Arial, sans-serif" font-size="13" font-weight="600" fill="#24292f">Write Files</text>
  <rect x="75" y="233" width="105" height="28" rx="14" fill="#BE0027"/>
  <text x="127" y="252" text-anchor="middle" font-family="'Inter', Arial, sans-serif" font-size="12" font-weight="600" fill="white">Deny</text>

  <text x="127" y="290" text-anchor="middle" font-family="'Inter', Arial, sans-serif" font-size="13" font-weight="600" fill="#24292f">Execute</text>
  <rect x="75" y="298" width="105" height="28" rx="14" fill="#BE0027"/>
  <text x="127" y="317" text-anchor="middle" font-family="'Inter', Arial, sans-serif" font-size="12" font-weight="600" fill="white">Deny</text>

  <text x="127" y="365" text-anchor="middle" font-family="'Inter', Arial, sans-serif" font-size="11" fill="#BE0027" font-style="italic">Read-only mode</text>
  <text x="127" y="382" text-anchor="middle" font-family="'Inter', Arial, sans-serif" font-size="11" fill="#BE0027" font-style="italic">No modifications</text>

  <!-- Column 2: Standard -->
  <rect x="245" y="85" width="195" height="320" rx="8" fill="#fff8e1" stroke="#9a6700" stroke-width="2"/>
  <rect x="245" y="85" width="195" height="45" rx="8" fill="#9a6700"/>
  <rect x="245" y="110" width="195" height="20" fill="#9a6700"/>
  <text x="342" y="113" text-anchor="middle" font-family="'Inter', Arial, sans-serif" font-size="16" font-weight="700" fill="white">Standard</text>

  <text x="342" y="160" text-anchor="middle" font-family="'Inter', Arial, sans-serif" font-size="13" font-weight="600" fill="#24292f">Read Files</text>
  <rect x="290" y="168" width="105" height="28" rx="14" fill="#1a7f37"/>
  <text x="342" y="187" text-anchor="middle" font-family="'Inter', Arial, sans-serif" font-size="12" font-weight="600" fill="white">Auto</text>

  <text x="342" y="225" text-anchor="middle" font-family="'Inter', Arial, sans-serif" font-size="13" font-weight="600" fill="#24292f">Write Files</text>
  <rect x="290" y="233" width="105" height="28" rx="14" fill="#9a6700"/>
  <text x="342" y="252" text-anchor="middle" font-family="'Inter', Arial, sans-serif" font-size="12" font-weight="600" fill="white">Ask</text>

  <text x="342" y="290" text-anchor="middle" font-family="'Inter', Arial, sans-serif" font-size="13" font-weight="600" fill="#24292f">Execute</text>
  <rect x="290" y="298" width="105" height="28" rx="14" fill="#9a6700"/>
  <text x="342" y="317" text-anchor="middle" font-family="'Inter', Arial, sans-serif" font-size="12" font-weight="600" fill="white">Ask</text>

  <text x="342" y="365" text-anchor="middle" font-family="'Inter', Arial, sans-serif" font-size="11" fill="#9a6700" font-style="italic">Default mode</text>
  <text x="342" y="382" text-anchor="middle" font-family="'Inter', Arial, sans-serif" font-size="11" fill="#9a6700" font-style="italic">Confirmation required</text>

  <!-- Column 3: Power -->
  <rect x="460" y="85" width="195" height="320" rx="8" fill="#e8f4fd" stroke="#0060B6" stroke-width="2"/>
  <rect x="460" y="85" width="195" height="45" rx="8" fill="#0060B6"/>
  <rect x="460" y="110" width="195" height="20" fill="#0060B6"/>
  <text x="557" y="113" text-anchor="middle" font-family="'Inter', Arial, sans-serif" font-size="16" font-weight="700" fill="white">Power</text>

  <text x="557" y="160" text-anchor="middle" font-family="'Inter', Arial, sans-serif" font-size="13" font-weight="600" fill="#24292f">Read Files</text>
  <rect x="505" y="168" width="105" height="28" rx="14" fill="#1a7f37"/>
  <text x="557" y="187" text-anchor="middle" font-family="'Inter', Arial, sans-serif" font-size="12" font-weight="600" fill="white">Auto</text>

  <text x="557" y="225" text-anchor="middle" font-family="'Inter', Arial, sans-serif" font-size="13" font-weight="600" fill="#24292f">Write Files</text>
  <rect x="505" y="233" width="105" height="28" rx="14" fill="#1a7f37"/>
  <text x="557" y="252" text-anchor="middle" font-family="'Inter', Arial, sans-serif" font-size="12" font-weight="600" fill="white">Auto</text>

  <text x="557" y="290" text-anchor="middle" font-family="'Inter', Arial, sans-serif" font-size="13" font-weight="600" fill="#24292f">Destructive</text>
  <rect x="505" y="298" width="105" height="28" rx="14" fill="#9a6700"/>
  <text x="557" y="317" text-anchor="middle" font-family="'Inter', Arial, sans-serif" font-size="12" font-weight="600" fill="white">Ask</text>

  <text x="557" y="365" text-anchor="middle" font-family="'Inter', Arial, sans-serif" font-size="11" fill="#0060B6" font-style="italic">Fast workflow</text>
  <text x="557" y="382" text-anchor="middle" font-family="'Inter', Arial, sans-serif" font-size="11" fill="#0060B6" font-style="italic">Destructive ops ask</text>

  <!-- Column 4: YOLO -->
  <rect x="675" y="85" width="195" height="320" rx="8" fill="#e6f4ea" stroke="#1a7f37" stroke-width="2"/>
  <rect x="675" y="85" width="195" height="45" rx="8" fill="#1a7f37"/>
  <rect x="675" y="110" width="195" height="20" fill="#1a7f37"/>
  <text x="772" y="113" text-anchor="middle" font-family="'Inter', Arial, sans-serif" font-size="16" font-weight="700" fill="white">YOLO</text>

  <text x="772" y="160" text-anchor="middle" font-family="'Inter', Arial, sans-serif" font-size="13" font-weight="600" fill="#24292f">Read Files</text>
  <rect x="720" y="168" width="105" height="28" rx="14" fill="#1a7f37"/>
  <text x="772" y="187" text-anchor="middle" font-family="'Inter', Arial, sans-serif" font-size="12" font-weight="600" fill="white">Auto</text>

  <text x="772" y="225" text-anchor="middle" font-family="'Inter', Arial, sans-serif" font-size="13" font-weight="600" fill="#24292f">Write Files</text>
  <rect x="720" y="233" width="105" height="28" rx="14" fill="#1a7f37"/>
  <text x="772" y="252" text-anchor="middle" font-family="'Inter', Arial, sans-serif" font-size="12" font-weight="600" fill="white">Auto</text>

  <text x="772" y="290" text-anchor="middle" font-family="'Inter', Arial, sans-serif" font-size="13" font-weight="600" fill="#24292f">Execute</text>
  <rect x="720" y="298" width="105" height="28" rx="14" fill="#1a7f37"/>
  <text x="772" y="317" text-anchor="middle" font-family="'Inter', Arial, sans-serif" font-size="12" font-weight="600" fill="white">Auto</text>

  <text x="772" y="365" text-anchor="middle" font-family="'Inter', Arial, sans-serif" font-size="11" fill="#1a7f37" font-style="italic">Everything auto</text>
  <text x="772" y="382" text-anchor="middle" font-family="'Inter', Arial, sans-serif" font-size="11" fill="#1a7f37" font-style="italic">No confirmations</text>
</svg>