<svg xmlns="http://www.w3.org/2000/svg" width="100%" viewBox="0 0 750 320">
  <defs>
    <marker id="arr10" markerWidth="10" markerHeight="7" refX="10" refY="3.5" orient="auto">
      <polygon points="0 0, 10 3.5, 0 7" fill="#BE0027"/>
    </marker>
  </defs>

  <!-- BEFORE bar -->
  <text x="40" y="55" font-family="'Inter', Arial, sans-serif" font-size="14" fill="#24292f" font-weight="700">Before</text>

  <!-- Full bar background -->
  <rect x="40" y="70" width="660" height="60" rx="8" fill="#f6f8fa" stroke="#d0d7de" stroke-width="1.5"/>

  <!-- Individual message segments (85% full = lots of segments) -->
  <rect x="42" y="72" width="36" height="56" rx="4" fill="#0060B6" opacity="0.7"/>
  <text x="60" y="104" text-anchor="middle" font-family="'JetBrains Mono', monospace" font-size="8" fill="white">1</text>

  <rect x="80" y="72" width="36" height="56" rx="4" fill="#0060B6" opacity="0.7"/>
  <text x="98" y="104" text-anchor="middle" font-family="'JetBrains Mono', monospace" font-size="8" fill="white">2</text>

  <rect x="118" y="72" width="36" height="56" rx="4" fill="#0060B6" opacity="0.7"/>
  <text x="136" y="104" text-anchor="middle" font-family="'JetBrains Mono', monospace" font-size="8" fill="white">3</text>

  <rect x="156" y="72" width="36" height="56" rx="4" fill="#0060B6" opacity="0.65"/>
  <text x="174" y="104" text-anchor="middle" font-family="'JetBrains Mono', monospace" font-size="8" fill="white">4</text>

  <text x="210" y="104" text-anchor="middle" font-family="'Inter', Arial, sans-serif" font-size="16" fill="#666">...</text>

  <rect x="228" y="72" width="36" height="56" rx="4" fill="#0060B6" opacity="0.55"/>
  <text x="246" y="104" text-anchor="middle" font-family="'JetBrains Mono', monospace" font-size="8" fill="white">38</text>

  <text x="282" y="104" text-anchor="middle" font-family="'Inter', Arial, sans-serif" font-size="16" fill="#666">...</text>

  <rect x="300" y="72" width="36" height="56" rx="4" fill="#0060B6" opacity="0.45"/>
  <text x="318" y="104" text-anchor="middle" font-family="'JetBrains Mono', monospace" font-size="8" fill="white">55</text>

  <text x="354" y="104" text-anchor="middle" font-family="'Inter', Arial, sans-serif" font-size="16" fill="#666">...</text>

  <rect x="372" y="72" width="36" height="56" rx="4" fill="#0060B6" opacity="0.4"/>
  <text x="390" y="104" text-anchor="middle" font-family="'JetBrains Mono', monospace" font-size="8" fill="white">77</text>

  <rect x="410" y="72" width="36" height="56" rx="4" fill="#0060B6" opacity="0.8"/>
  <text x="428" y="104" text-anchor="middle" font-family="'JetBrains Mono', monospace" font-size="8" fill="white">78</text>

  <text x="464" y="104" text-anchor="middle" font-family="'Inter', Arial, sans-serif" font-size="16" fill="#666">...</text>

  <rect x="480" y="72" width="36" height="56" rx="4" fill="#0060B6" opacity="0.9"/>
  <text x="498" y="104" text-anchor="middle" font-family="'JetBrains Mono', monospace" font-size="8" fill="white">87</text>

  <rect x="518" y="72" width="36" height="56" rx="4" fill="#0060B6" opacity="0.95"/>
  <text x="536" y="104" text-anchor="middle" font-family="'JetBrains Mono', monospace" font-size="8" fill="white">88</text>

  <rect x="556" y="72" width="36" height="56" rx="4" fill="#0060B6"/>
  <text x="574" y="104" text-anchor="middle" font-family="'JetBrains Mono', monospace" font-size="8" fill="white">89</text>

  <!-- 85% label -->
  <rect x="620" y="80" width="70" height="30" rx="6" fill="#BE0027" opacity="0.15"/>
  <text x="655" y="100" text-anchor="middle" font-family="'Inter', Arial, sans-serif" font-size="13" fill="#BE0027" font-weight="700">85% full</text>

  <!-- Arrow down: Compaction -->
  <line x1="370" y1="138" x2="370" y2="178" stroke="#BE0027" stroke-width="3" marker-end="url(#arr10)"/>
  <text x="420" y="165" font-family="'Inter', Arial, sans-serif" font-size="13" fill="#BE0027" font-weight="600">Compaction</text>

  <!-- AFTER bar -->
  <text x="40" y="210" font-family="'Inter', Arial, sans-serif" font-size="14" fill="#24292f" font-weight="700">After</text>

  <rect x="40" y="225" width="660" height="60" rx="8" fill="#f6f8fa" stroke="#d0d7de" stroke-width="1.5"/>

  <!-- Summary block (wider, different color) -->
  <rect x="42" y="227" width="200" height="56" rx="6" fill="#9a6700" opacity="0.8"/>
  <text x="142" y="253" text-anchor="middle" font-family="'Inter', Arial, sans-serif" font-size="11" fill="white" font-weight="600">Summary</text>
  <text x="142" y="270" text-anchor="middle" font-family="'JetBrains Mono', monospace" font-size="9" fill="#ffe8b0">(msgs 1-77)</text>

  <!-- Recent messages kept -->
  <rect x="248" y="227" width="36" height="56" rx="4" fill="#0060B6" opacity="0.8"/>
  <text x="266" y="259" text-anchor="middle" font-family="'JetBrains Mono', monospace" font-size="8" fill="white">78</text>

  <text x="302" y="259" text-anchor="middle" font-family="'Inter', Arial, sans-serif" font-size="16" fill="#666">...</text>

  <rect x="318" y="227" width="36" height="56" rx="4" fill="#0060B6" opacity="0.9"/>
  <text x="336" y="259" text-anchor="middle" font-family="'JetBrains Mono', monospace" font-size="8" fill="white">87</text>

  <rect x="356" y="227" width="36" height="56" rx="4" fill="#0060B6" opacity="0.95"/>
  <text x="374" y="259" text-anchor="middle" font-family="'JetBrains Mono', monospace" font-size="8" fill="white">88</text>

  <rect x="394" y="227" width="36" height="56" rx="4" fill="#0060B6"/>
  <text x="412" y="259" text-anchor="middle" font-family="'JetBrains Mono', monospace" font-size="8" fill="white">89</text>

  <!-- 25% label -->
  <rect x="620" y="235" width="70" height="30" rx="6" fill="#1a7f37" opacity="0.15"/>
  <text x="655" y="255" text-anchor="middle" font-family="'Inter', Arial, sans-serif" font-size="13" fill="#1a7f37" font-weight="700">25% full</text>

  <!-- Chapter label -->
  <text x="370" y="310" text-anchor="middle" font-family="'Inter', Arial, sans-serif" font-size="11" fill="#999">Chapter 10 — Context Compaction</text>
</svg>